<svg xmlns="http://www.w3.org/2000/svg" width="1200" height="630" viewBox="0 0 1200 630" fill="none" role="img" aria-labelledby="title desc">
  <title id="title">The Author Identity Project systems diagram</title>
  <desc id="desc">A warm-toned architecture-style diagram for The Author Identity Project, showing WordPress adapters feeding a normalized author contract that powers feed metadata, JSON-LD, fediverse identity, and AI-rights signaling.</desc>
  <defs>
    <linearGradient id="bg" x1="120" y1="40" x2="1080" y2="590" gradientUnits="userSpaceOnUse">
      <stop stop-color="#FAF4EA"/>
      <stop offset="0.6" stop-color="#F4E7D2"/>
      <stop offset="1" stop-color="#EED9BE"/>
    </linearGradient>
    <linearGradient id="warmAccent" x1="0" y1="0" x2="1" y2="1">
      <stop stop-color="#D96B3B"/>
      <stop offset="1" stop-color="#C3472C"/>
    </linearGradient>
    <linearGradient id="goldAccent" x1="0" y1="0" x2="1" y2="1">
      <stop stop-color="#D8A94B"/>
      <stop offset="1" stop-color="#C98B2E"/>
    </linearGradient>
    <filter id="shadow" x="-20%" y="-20%" width="140%" height="140%">
      <feDropShadow dx="0" dy="14" stdDeviation="18" flood-color="#7F4C27" flood-opacity="0.14"/>
    </filter>
    <style>
      .eyebrow{font:700 11px ui-sans-serif,system-ui,-apple-system,BlinkMacSystemFont,"Segoe UI",sans-serif;letter-spacing:.18em;text-transform:uppercase;fill:#9D613C}
      .hero-title{font:700 72px Baskerville,"Libre Baskerville","Times New Roman",serif;fill:#2F2A26;letter-spacing:-0.9px}
      .hero-subtitle{font:400 30px Baskerville,"Libre Baskerville","Times New Roman",serif;fill:#7C614E;letter-spacing:0.1px}
      .hero-third{font:400 30px Baskerville,"Libre Baskerville","Times New Roman",serif;fill:#A56A41;letter-spacing:0.1px}
      .title{font:700 21px ui-sans-serif,system-ui,-apple-system,BlinkMacSystemFont,"Segoe UI",sans-serif;fill:#2F2A26}
      .subtitle{font:500 15px ui-sans-serif,system-ui,-apple-system,BlinkMacSystemFont,"Segoe UI",sans-serif;fill:#5D5148}
      .chip{font:700 13px ui-sans-serif,system-ui,-apple-system,BlinkMacSystemFont,"Segoe UI",sans-serif;fill:#402E23}
      .small{font:700 12px ui-sans-serif,system-ui,-apple-system,BlinkMacSystemFont,"Segoe UI",sans-serif;fill:#5D4330}
      .output-title{font:700 19px ui-sans-serif,system-ui,-apple-system,BlinkMacSystemFont,"Segoe UI",sans-serif;fill:#2F2A26}
      .body{font:500 14px ui-sans-serif,system-ui,-apple-system,BlinkMacSystemFont,"Segoe UI",sans-serif;fill:#5E5145}
      .code{font-family:ui-monospace,SFMono-Regular,Menlo,Consolas,monospace}
    </style>
  </defs>

  <rect width="1200" height="630" rx="28" fill="url(#bg)"/>
  <circle cx="1030" cy="88" r="154" fill="#E79A58" opacity="0.12"/>
  <circle cx="150" cy="560" r="170" fill="#D05538" opacity="0.08"/>
  <circle cx="1090" cy="545" r="118" fill="#D8A94B" opacity="0.08"/>

  <text x="72" y="104" class="hero-title">The Author Identity Project</text>
  <text x="918" y="154" class="hero-subtitle">Portable authorship</text>
  <text x="918" y="186" class="hero-third">for WordPress</text>

  <g filter="url(#shadow)">
    <rect x="330" y="140" width="536" height="360" rx="26" fill="#FFF9F2" stroke="#D9B899"/>
    <rect x="356" y="164" width="484" height="84" rx="18" fill="#FFF0E2" stroke="#E2BA97"/>
    <text x="382" y="189" class="eyebrow">Core model</text>
    <text x="382" y="221" class="title">Normalized author contract</text>
    <text x="382" y="241" class="subtitle">WordPress as a source of truth for richer author identity.</text>

    <g>
      <rect x="372" y="270" width="208" height="96" rx="18" fill="#FFF7ED" stroke="#E5C5A6"/>
      <text x="394" y="294" class="eyebrow">Identity fields</text>
      <text x="394" y="321" class="chip">display_name · role</text>
      <text x="394" y="342" class="chip">profiles · <tspan class="code">sameAs</tspan></text>
      <text x="394" y="363" class="chip"><tspan class="code">actor URL</tspan> · handles</text>
    </g>

    <g>
      <rect x="608" y="270" width="216" height="96" rx="18" fill="#FFF7ED" stroke="#E5C5A6"/>
      <text x="630" y="294" class="eyebrow">Editorial / rights</text>
      <text x="630" y="321" class="chip"><tspan class="code">byline:perspective</tspan></text>
      <text x="630" y="342" class="chip">consent · overrides</text>
      <text x="630" y="363" class="chip">audit log · denials</text>
    </g>

    <g>
      <rect x="372" y="386" width="452" height="92" rx="18" fill="#FFF3E5" stroke="#E2BA97"/>
      <text x="394" y="409" class="eyebrow">Output rule</text>
      <text x="394" y="435" class="output-title">Outputs react to one normalized data model</text>
      <text x="394" y="455" class="body">Feeds, schema, federation, and rights signals render</text>
      <text x="394" y="473" class="body">different views of the same author contract.</text>
    </g>

    <g transform="translate(394 486)">
      <rect width="94" height="22" rx="11" fill="#F6DDC6"/>
      <text x="47" y="15" text-anchor="middle" class="small">feeds</text>
    </g>
    <g transform="translate(498 486)">
      <rect width="98" height="22" rx="11" fill="#F8E7B8"/>
      <text x="49" y="15" text-anchor="middle" class="small">schema</text>
    </g>
    <g transform="translate(606 486)">
      <rect width="110" height="22" rx="11" fill="#F4D5BE"/>
      <text x="55" y="15" text-anchor="middle" class="small">fediverse</text>
    </g>
    <g transform="translate(726 486)">
      <rect width="98" height="22" rx="11" fill="#F1DDC7"/>
      <text x="49" y="15" text-anchor="middle" class="small">AI / rights</text>
    </g>
  </g>

  <g>
    <rect x="62" y="202" width="206" height="58" rx="18" fill="#FFF7ED" stroke="#DFC1A5"/>
    <text x="86" y="224" class="eyebrow">Adapter</text>
    <text x="86" y="246" class="chip">Core WordPress</text>

    <rect x="62" y="276" width="206" height="58" rx="18" fill="#FFF7ED" stroke="#DFC1A5"/>
    <text x="86" y="298" class="eyebrow">Adapter</text>
    <text x="86" y="320" class="chip">Co-Authors Plus</text>

    <rect x="62" y="350" width="206" height="58" rx="18" fill="#FFF7ED" stroke="#DFC1A5"/>
    <text x="86" y="372" class="eyebrow">Adapter</text>
    <text x="86" y="394" class="chip">PublishPress Authors</text>

    <rect x="62" y="424" width="206" height="58" rx="18" fill="#FFF7ED" stroke="#DFC1A5"/>
    <text x="86" y="446" class="eyebrow">Adapter</text>
    <text x="86" y="468" class="chip">HM Authorship</text>
  </g>

  <g>
    <rect x="918" y="198" width="222" height="60" rx="18" fill="#FFF7ED" stroke="#DFC1A5"/>
    <text x="942" y="220" class="eyebrow">Feed outputs</text>
    <text x="942" y="243" class="chip">RSS · Atom · JSON Feed</text>

    <rect x="918" y="274" width="222" height="60" rx="18" fill="#FFF7ED" stroke="#DFC1A5"/>
    <text x="942" y="296" class="eyebrow">Schema outputs</text>
    <text x="942" y="319" class="chip"><tspan class="code">JSON-LD</tspan> Article + Person</text>

    <rect x="918" y="350" width="222" height="60" rx="18" fill="#FFF7ED" stroke="#DFC1A5"/>
    <text x="942" y="372" class="eyebrow">Federation outputs</text>
    <text x="942" y="395" class="chip">creator + actor identity</text>

    <rect x="918" y="426" width="222" height="60" rx="18" fill="#FFF7ED" stroke="#DFC1A5"/>
    <text x="942" y="448" class="eyebrow">Rights outputs</text>
    <text x="942" y="471" class="chip">robots · <tspan class="code">TDMRep</tspan> · <tspan class="code">ai.txt</tspan></text>
  </g>

  <g stroke-linecap="round" stroke-linejoin="round" fill="none">
    <path d="M268 231C300 231 305 206 330 206" stroke="url(#warmAccent)" stroke-width="3.5"/>
    <path d="M268 305C300 305 307 262 330 262" stroke="url(#warmAccent)" stroke-width="3.5"/>
    <path d="M268 379C300 379 307 334 330 334" stroke="url(#warmAccent)" stroke-width="3.5"/>
    <path d="M268 453C300 453 307 406 330 406" stroke="url(#warmAccent)" stroke-width="3.5"/>

    <path d="M866 228C892 228 900 228 918 228" stroke="url(#goldAccent)" stroke-width="3.5"/>
    <path d="M866 304C892 304 900 304 918 304" stroke="url(#goldAccent)" stroke-width="3.5"/>
    <path d="M866 380C892 380 900 380 918 380" stroke="url(#goldAccent)" stroke-width="3.5"/>
    <path d="M866 456C892 456 900 456 918 456" stroke="url(#goldAccent)" stroke-width="3.5"/>

    <path d="M476 366V386" stroke="#D4B08A" stroke-width="2.5" stroke-dasharray="7 8"/>
    <path d="M720 366V386" stroke="#D4B08A" stroke-width="2.5" stroke-dasharray="7 8"/>
  </g>

  <g>
    <rect x="249" y="536" width="702" height="72" rx="16" fill="#FFF8F0" stroke="#DFC1A5"/>
    <text x="600" y="559" text-anchor="middle" class="eyebrow">Design principle</text>
    <text x="600" y="581" text-anchor="middle" class="body">Separate authorship from presentation: adapters normalize source systems, outputs stay additive,</text>
    <text x="600" y="599" text-anchor="middle" class="body">and identity metadata travels with the work instead of collapsing at syndication.</text>
  </g>
</svg>
