<svg xmlns="http://www.w3.org/2000/svg" width="1600" height="520" viewBox="0 0 1600 520" fill="none" role="img" aria-labelledby="title desc">
  <title id="title">Author Identity banner</title>
  <desc id="desc">Editorial banner for Author Identity and Byline Feeds with RSS, fediverse, and JSON-LD icons.</desc>
  <defs>
    <style>
      .title{font:700 154px "Newsreader", Georgia, "Times New Roman", serif; fill:#213047; letter-spacing:-1.6px;}
      .sub{font:500 28px Inter, ui-sans-serif, system-ui, -apple-system, "Segoe UI", sans-serif; fill:#5A4B44; letter-spacing:3px;}
      .body{font:400 26px Inter, ui-sans-serif, system-ui, -apple-system, "Segoe UI", sans-serif; fill:#5A4B44;}
      .small{font:500 15px Inter, ui-sans-serif, system-ui, -apple-system, "Segoe UI", sans-serif; fill:#C9A060;}
    </style>
  </defs>
  <rect width="1600" height="520" fill="#FCF7F0"/>
  <g transform="translate(0 50)">
    <rect width="1600" height="420" fill="#FCF7F0"/>
    <rect x="36" y="34" width="1528" height="352" rx="28" fill="#FFFBF7" stroke="#E6D9CB"/>
    <line x1="98" y1="92.5" x2="1502" y2="92.5" stroke="#C9A060"/>
    <circle cx="100" cy="94" r="6" fill="#C9A060"/>
    <circle cx="1500" cy="94" r="6" fill="#C9A060"/>
    <text x="96" y="70" class="small">Author metadata across protocols</text>
    <text x="98" y="230" class="title">Author Identity</text>
    <line x1="104" y1="272.5" x2="420" y2="272.5" stroke="#C9A060"/>
    <text x="104" y="312" class="sub">BYLINE FEEDS</text>
    <g transform="translate(430 275)">
      <circle cx="24" cy="24" r="24" fill="#FFFDFC" stroke="#E6D9CB"/>
      <circle cx="13.44" cy="33.6" r="2.64" fill="#B86A4F"/>
      <path d="M8.64 24.72 A10.08 10.08 0 0 1 18.72 34.8" stroke="#B86A4F" stroke-width="3" stroke-linecap="round" fill="none"/>
      <path d="M8.64 15.12 A15.36 15.36 0 0 1 24 30.48" stroke="#B86A4F" stroke-width="3" stroke-linecap="round" fill="none"/>
    </g>
    <g transform="translate(494 275)">
      <circle cx="24" cy="24" r="24" fill="#FFFDFC" stroke="#E6D9CB"/>
      <path d="M24 11.52L24 24M14.4 23.52L24 24M33.6 23.52L24 24M24 35.52L24 24M14.4 23.52L24 35.52M33.6 23.52L24 35.52" stroke="#213047" stroke-width="2.2" stroke-linecap="round" stroke-linejoin="round" fill="none"/>
      <circle cx="24" cy="11.52" r="2.88" fill="#C9A060"/>
      <circle cx="14.4" cy="23.52" r="2.88" fill="#C9A060"/>
      <circle cx="33.6" cy="23.52" r="2.88" fill="#C9A060"/>
      <circle cx="24" cy="35.52" r="2.88" fill="#C9A060"/>
      <circle cx="24" cy="24" r="3.45" fill="#213047"/>
    </g>
    <g transform="translate(558 275)">
      <circle cx="24" cy="24" r="24" fill="#FFFDFC" stroke="#E6D9CB"/>
      <path d="M18.72 10.56L14.88 10.56L12 15.36L12 20.64L8.64 24L12 27.36L12 32.64L14.88 37.44L18.72 37.44" stroke="#213047" stroke-width="2.4" stroke-linecap="round" stroke-linejoin="round" fill="none"/>
      <path d="M29.28 10.56L33.12 10.56L36 15.36L36 20.64L39.36 24L36 27.36L36 32.64L33.12 37.44L29.28 37.44" stroke="#213047" stroke-width="2.4" stroke-linecap="round" stroke-linejoin="round" fill="none"/>
      <path d="M24 15.36L24 32.64" stroke="#213047" stroke-width="2.4" stroke-linecap="round" fill="none"/>
      <circle cx="24" cy="15.36" r="2.3" fill="#C9A060"/>
      <circle cx="24" cy="24" r="2.3" fill="#C9A060"/>
      <circle cx="24" cy="32.64" r="2.3" fill="#C9A060"/>
    </g>
    <text x="104" y="350" class="body">Portable authorship metadata for WordPress · RSS, fediverse, and JSON-LD.</text>
  </g>
</svg>
