<svg xmlns="http://www.w3.org/2000/svg" viewBox="0 0 1200 630" width="1200" height="630" role="img" aria-labelledby="title desc">
  <title id="title">Bibliography brand graphic</title>
  <desc id="desc">Three books on a shelf above the Bibliography wordmark and the subtitle Scholarly references for WordPress.</desc>

  <rect width="1200" height="630" fill="#F5F3EF"/>

  <g transform="translate(450, 86) scale(1.9)">
    <rect x="0" y="168" width="140" height="7" rx="1" fill="#9B9EA3"/>

    <g transform="rotate(4, 42, 148)">
      <rect x="0" y="8" width="38" height="160" rx="2" fill="#2D3136"/>
      <rect x="0" y="8" width="5" height="160" rx="1" fill="#23272B"/>
      <rect x="11" y="78" width="18" height="7" rx="1.5" fill="#FFFFFF" opacity="0.85"/>
    </g>

    <g transform="translate(40, 0)">
      <rect x="0" y="0" width="12" height="168" rx="1" fill="#7B8FA1"/>
      <rect x="8" y="0" width="38" height="168" rx="2" fill="#2D3136"/>
      <rect x="8" y="0" width="5" height="168" rx="1" fill="#23272B"/>
      <rect x="20" y="78" width="18" height="7" rx="1.5" fill="#FFFFFF" opacity="0.85"/>
    </g>

    <g transform="translate(84, 12)">
      <rect x="0" y="0" width="38" height="156" rx="2" fill="#2D3136"/>
      <rect x="0" y="0" width="5" height="156" rx="1" fill="#23272B"/>
      <rect x="11" y="72" width="18" height="7" rx="1.5" fill="#FFFFFF" opacity="0.85"/>
    </g>
  </g>

  <text
    x="600"
    y="450"
    text-anchor="middle"
    font-family="Baskerville, 'Libre Baskerville', 'Times New Roman', serif"
    font-size="88"
    font-weight="400"
    fill="#2D3136"
    letter-spacing="-0.6"
  >Bibliography</text>

  <text
    x="600"
    y="500"
    text-anchor="middle"
    font-family="Baskerville, 'Libre Baskerville', 'Times New Roman', serif"
    font-size="32"
    font-weight="400"
    fill="#7B8FA1"
    letter-spacing="0.3"
  >Scholarly references for WordPress</text>

  <rect x="445" y="524" width="310" height="6" rx="3" fill="#C4973E"/>
</svg>
